<?xml version="1.0" encoding="UTF-8"?>
<svg version="1.1" xmlns="http://www.w3.org/2000/svg" width="1024" height="1024">
<path d="M0 0 C337.92 0 675.84 0 1024 0 C1024 337.92 1024 675.84 1024 1024 C686.08 1024 348.16 1024 0 1024 C0 686.08 0 348.16 0 0 Z " fill="#212122" transform="translate(0,0)"/>
<path d="M0 0 C1.01323334 0.00232635 1.01323334 0.00232635 2.04693604 0.00469971 C39.2825312 0.10476288 39.2825312 0.10476288 46.25 5.5 C49.97885839 9.31980615 51.06179558 11.88222636 51.06697559 17.19752502 C51.07280779 18.22714072 51.07863998 19.25675642 51.08464891 20.31757259 C51.08086958 21.44713155 51.07709026 22.5766905 51.07319641 23.74047852 C51.07702196 24.94163835 51.08084751 26.14279818 51.08478898 27.38035679 C51.09333311 30.71573502 51.09288124 34.05089323 51.08860838 37.38626528 C51.08614546 40.9827723 51.09514986 44.57925322 51.10264587 48.17575073 C51.1154065 55.2218029 51.11718491 62.26781699 51.11484561 69.31387877 C51.113064 75.03934514 51.11480872 80.76479992 51.11907005 86.49026489 C51.11966524 87.30452425 51.12026043 88.1187836 51.12087366 88.95771748 C51.12208538 90.61176642 51.12329951 92.26581536 51.12451603 93.9198643 C51.1353966 109.43715457 51.1332265 124.95442312 51.12713119 140.47171462 C51.12196022 154.67574405 51.13322128 168.87970493 51.15222941 183.0837208 C51.1715879 197.66103322 51.17986739 212.23831318 51.17610615 226.81563854 C51.17419125 235.00269514 51.1767098 243.18969337 51.19082069 251.3767395 C51.20271008 258.34551265 51.20416686 265.31419151 51.19203053 272.2829659 C51.18612489 275.83991859 51.1850886 279.3966986 51.19703293 282.95363998 C51.20981819 286.80568695 51.1994675 290.65746968 51.1867218 294.50952148 C51.19409609 295.63908044 51.20147037 296.76863939 51.20906812 297.93242741 C51.1982583 299.47685095 51.1982583 299.47685095 51.18723011 301.05247498 C51.18728513 301.94189002 51.18734014 302.83130507 51.18739682 303.74767208 C50.7321692 306.63440058 49.81970953 308.02593707 47.8125 310.125 C45.45703125 310.3671875 45.45703125 310.3671875 42.625 310 C41.58746582 309.86940186 40.54993164 309.73880371 39.48095703 309.60424805 C37.12878191 309.29695936 34.77922701 308.96842991 32.43383789 308.61303711 C20.76159214 306.93932532 9.21537846 306.76974559 -2.5625 306.8125 C-4.08336212 306.81473572 -4.08336212 306.81473572 -5.63494873 306.8170166 C-21.3384212 306.85848731 -36.67835828 307.46296194 -52.1875 310.125 C-53.06325684 310.26953613 -53.93901367 310.41407227 -54.84130859 310.56298828 C-71.38222832 313.35955269 -87.69659443 317.66410687 -103.1875 324.125 C-104.3947876 324.62193359 -104.3947876 324.62193359 -105.62646484 325.12890625 C-108.02534865 326.11933794 -110.4194002 327.12068271 -112.8125 328.125 C-113.6065625 328.455 -114.400625 328.785 -115.21875 329.125 C-119.77635398 331.03769937 -124.10844783 333.08473333 -128.37646484 335.5859375 C-130.1875 336.125 -130.1875 336.125 -134.1875 334.125 C-134.1875 271.755 -134.1875 209.385 -134.1875 145.125 C-112.7375 144.795 -91.2875 144.465 -69.1875 144.125 C-65.25093507 138.87624675 -65.70507032 135.41392263 -65.75 129.0625 C-65.73001953 128.05638672 -65.71003906 127.05027344 -65.68945312 126.01367188 C-65.69009766 125.04880859 -65.69074219 124.08394531 -65.69140625 123.08984375 C-65.68955322 122.2093335 -65.6877002 121.32882324 -65.68579102 120.42163086 C-65.99062286 118.02593362 -65.99062286 118.02593362 -67.82328796 116.50848389 C-70.87754366 114.72120192 -72.98512023 114.72738563 -76.51660156 114.69262695 C-77.79762756 114.67283279 -79.07865356 114.65303864 -80.39849854 114.63264465 C-81.79170586 114.62587537 -83.18491479 114.61942845 -84.578125 114.61328125 C-86.00731957 114.59643132 -87.43649935 114.57828065 -88.86566162 114.55888367 C-92.62043638 114.51141104 -96.37515116 114.4815843 -100.13012695 114.45544434 C-103.96447595 114.42562478 -107.79861836 114.3790993 -111.6328125 114.33398438 C-119.1509391 114.24798255 -126.66908077 114.18062374 -134.1875 114.125 C-134.30366439 105.26679379 -134.39235133 96.40885224 -134.44656086 87.55004883 C-134.472587 83.43592303 -134.50785526 79.32232069 -134.56469727 75.20849609 C-134.6192693 71.23380433 -134.648973 67.25961409 -134.66188622 63.28457642 C-134.67108126 61.77275708 -134.68903712 60.26096329 -134.71615028 58.74935913 C-134.98262374 43.26872267 -134.98262374 43.26872267 -129.1875 37.125 C-127.07982894 35.2679709 -125.27412616 33.84504986 -122.9375 32.375 C-122.30400635 31.96725342 -121.6705127 31.55950684 -121.01782227 31.1394043 C-93.08402884 13.78713654 -60.83712898 4.08729375 -28.1875 1.125 C-27.25800537 1.03814941 -26.32851074 0.95129883 -25.37084961 0.86181641 C-16.90359295 0.1307092 -8.49589377 -0.03057973 0 0 Z " fill="#FCF5E6" transform="translate(662.1875,319.875)"/>
<path d="M0 0 C3.54069798 4.50829846 4.49531954 7.39824338 4.45410156 13.10693359 C4.45468567 13.79055969 4.45526978 14.47418579 4.45587158 15.17852783 C4.45310371 17.41902975 4.42207681 19.65817051 4.390625 21.8984375 C4.38315791 23.45927199 4.37746719 25.02011589 4.37347412 26.58096313 C4.35825441 30.67468478 4.31900507 34.76783222 4.2746582 38.86132812 C4.22640249 43.78054439 4.20815396 48.69995342 4.18484497 53.61933899 C4.14615089 61.07995779 4.0694735 68.53931851 4 76 C-18.11 76.33 -40.22 76.66 -63 77 C-64.52671005 81.58013016 -64.22541283 86.13992939 -64.25 90.9375 C-64.270625 91.93974609 -64.29125 92.94199219 -64.3125 93.97460938 C-64.31765625 94.94076172 -64.3228125 95.90691406 -64.328125 96.90234375 C-64.3374707 97.78398193 -64.34681641 98.66562012 -64.35644531 99.57397461 C-63.90789733 102.62686589 -63.17618624 103.81153847 -61 106 C-58.08052078 106.6199216 -58.08052078 106.6199216 -54.69262695 106.54589844 C-53.39150467 106.56561707 -52.09038239 106.58533569 -50.74983215 106.60565186 C-49.32931562 106.60731503 -47.90879852 106.60854589 -46.48828125 106.609375 C-45.03523409 106.62435422 -43.58220398 106.64108083 -42.12919617 106.65948486 C-38.3069481 106.70320056 -34.48492969 106.72316647 -30.66247559 106.73822021 C-26.76117345 106.75777638 -22.86011991 106.79974792 -18.95898438 106.83984375 C-11.30605634 106.91519132 -3.65323249 106.96545484 4 107 C4.04666364 131.60798897 4.08196114 156.21597133 4.10362434 180.82399559 C4.11394906 192.2492152 4.12803215 203.67440737 4.15087891 215.09960938 C4.17077628 225.05460459 4.18370774 235.00957994 4.18817699 244.96459448 C4.19079058 250.23859149 4.19695831 255.51253164 4.21146011 260.78651047 C4.22498639 265.74566554 4.22923273 270.70474006 4.22621536 275.66391182 C4.22676776 277.48849105 4.23077459 279.31307285 4.23841095 281.13763618 C4.24829481 283.61996468 4.24599311 286.10198512 4.24050903 288.58432007 C4.24633472 289.31388361 4.2521604 290.04344716 4.25816262 290.79511869 C4.22824242 295.77175758 4.22824242 295.77175758 2 298 C-1.32813034 297.68968482 -4.16876886 295.99788951 -7.12475586 294.5246582 C-27.97476625 284.1675161 -50.53859719 276.90008971 -73.4375 272.8125 C-74.74001709 272.5798645 -74.74001709 272.5798645 -76.06884766 272.3425293 C-79.0407285 271.84522843 -82.01482657 271.41058706 -85 271 C-85.64257751 270.91139709 -86.28515503 270.82279419 -86.94720459 270.73150635 C-100.09689283 268.98012449 -113.14488456 268.68876623 -126.39892578 268.73925781 C-129.75962164 268.75003084 -133.11978842 268.73926829 -136.48046875 268.7265625 C-146.80547603 268.72066497 -156.88483491 268.87709361 -167.08764648 270.546875 C-171.15246072 271.17930817 -174.89665804 271.27819268 -179 271 C-181.5219231 268.4780769 -181.25175753 267.65351347 -181.25726891 264.16353989 C-181.2637178 263.13565629 -181.27016669 262.10777269 -181.276811 261.0487411 C-181.2737138 259.91082976 -181.2706166 258.77291841 -181.26742554 257.6005249 C-181.27195665 256.3984015 -181.27648776 255.1962781 -181.28115618 253.95772672 C-181.29166209 250.61029396 -181.29311997 247.26307525 -181.29076743 243.91564107 C-181.29036049 240.30951333 -181.30138675 236.70341805 -181.31088257 233.0973053 C-181.32752145 226.02758559 -181.33299345 218.95789922 -181.33410732 211.88816157 C-181.33505661 206.14216442 -181.33916093 200.3961783 -181.34550858 194.65018463 C-181.36313032 178.36781843 -181.37234621 162.08547863 -181.37084763 145.80310282 C-181.37076772 144.92464627 -181.3706878 144.04618972 -181.37060547 143.14111328 C-181.37052371 142.26158679 -181.37044195 141.3820603 -181.37035771 140.47588149 C-181.36954496 126.22455902 -181.38867733 111.97334228 -181.4168822 97.7220504 C-181.44559819 83.09733007 -181.45942315 68.47266132 -181.45769465 53.84791207 C-181.45703021 45.63391169 -181.46254575 37.42002208 -181.48405075 29.20604706 C-181.50224588 22.21128 -181.50662385 15.21667391 -181.4930319 8.22189346 C-181.48649318 4.65250388 -181.48641707 1.08342324 -181.5037384 -2.48593712 C-181.52232083 -6.3549653 -181.50993772 -10.22354031 -181.49447632 -14.09259033 C-181.50476344 -15.22157879 -181.51505057 -16.35056725 -181.52564943 -17.51376748 C-181.45641843 -25.32924356 -180.2454754 -28.7545246 -174.6875 -34.3125 C-135.80957923 -58.72421769 -31.73473755 -29.58026913 0 0 Z " fill="#FCF5E6" transform="translate(492,358)"/>
<path d="M0 0 C0.91007812 0.00902344 1.82015625 0.01804687 2.7578125 0.02734375 C3.80582031 0.04474609 3.80582031 0.04474609 4.875 0.0625 C4.87646521 0.96105517 4.87646521 0.96105517 4.87796003 1.87776297 C4.93620953 37.36753525 5.00998919 72.85724207 5.10398628 108.34693811 C5.11525469 112.60653592 5.1263931 116.86613406 5.13745117 121.12573242 C5.13965486 121.97375546 5.14185854 122.82177851 5.144129 123.69549922 C5.17951857 137.43348056 5.20437333 151.17146184 5.22534702 164.90947189 C5.24709586 179.00191722 5.28013754 193.09430331 5.32370156 207.18669826 C5.3502341 215.88515159 5.36791765 224.58353107 5.37434604 233.28202287 C5.37959503 239.24380078 5.3957955 245.20548571 5.42066566 251.16721382 C5.43469752 254.60880646 5.44384524 258.05023258 5.44000816 261.49185562 C5.43836463 265.22126324 5.45497685 268.9501524 5.47627258 272.67948914 C5.47142501 273.76995424 5.46657743 274.86041935 5.46158296 275.98392886 C5.46040919 283.03557053 5.46040919 283.03557053 8.875 289.0625 C12.24155761 291.58741821 15.83777484 291.33387548 19.875 291.0625 C23.50206209 290.53159676 27.09140277 289.83343361 30.6875 289.125 C32.56822627 288.75768079 34.44974043 288.39437205 36.33203125 288.03515625 C37.5691687 287.79164429 37.5691687 287.79164429 38.83129883 287.54321289 C47.02222156 286.24956351 55.12700359 285.90365207 63.41015625 285.89453125 C65.0264518 285.88953865 65.0264518 285.88953865 66.67539978 285.88444519 C68.94529803 285.87940979 71.21520359 285.87703581 73.48510742 285.87719727 C76.90361183 285.87502157 80.32178732 285.85685873 83.74023438 285.83789062 C95.9403872 285.80615407 107.812965 286.18614556 119.875 288.0625 C121.23202026 288.26564819 121.23202026 288.26564819 122.61645508 288.47290039 C153.97947517 293.53840535 188.01700427 304.41700669 213.6875 323.625 C218.59024777 326.92222433 223.12830912 326.97500827 228.875 326.0625 C232.87480724 324.39047574 236.37824287 322.11717948 240 319.75 C263.11203119 305.50536077 288.66506249 295.52640081 315.38623047 290.53173828 C317.10704294 290.20729237 318.82473509 289.86600909 320.53955078 289.51123047 C336.47124848 286.27009575 352.1105396 285.68554521 368.3125 285.6875 C369.28110962 285.68568726 370.24971924 285.68387451 371.24768066 285.68200684 C388.37692639 285.68563422 405.31725092 286.68190716 422.13294983 290.09506226 C426.90278426 291.03055281 431.05619529 291.64272342 435.875 291.0625 C438.97983981 288.4083502 440.57041616 286.67500333 441.33369792 282.63409829 C441.52376306 279.58610265 441.54410041 276.57514783 441.51423645 273.52127075 C441.52259213 272.35233178 441.5309478 271.18339281 441.53955668 269.97903144 C441.55768641 266.74283068 441.55351304 263.5075486 441.5398711 260.2713542 C441.5305995 256.77852193 441.5501582 253.28583621 441.56619263 249.79304504 C441.59002505 243.74440271 441.59564332 237.69596413 441.58884621 231.64728165 C441.5790452 222.90197954 441.5967824 214.15690332 441.62121352 205.41163777 C441.66010578 191.22266238 441.67676621 177.0337516 441.67944336 162.84472656 C441.68209137 149.06246629 441.69521117 135.28028151 441.72241211 121.49804688 C441.72408549 120.64832948 441.72575887 119.79861208 441.72748295 118.92314567 C441.7359425 114.66030881 441.7446079 110.3974724 441.75337565 106.13463616 C441.82583197 70.77726776 441.86220719 35.41993842 441.875 0.0625 C443.30715775 0.03195635 444.73950519 0.01022814 446.171875 -0.0078125 C446.96948242 -0.02086426 447.76708984 -0.03391602 448.58886719 -0.04736328 C452.64087474 0.14736156 455.45924756 1.65825774 458.31640625 4.4921875 C461.95090184 8.65477219 462.99850784 11.67117651 463.00922108 17.0788908 C463.01367892 18.12146563 463.01813676 19.16404046 463.02272969 20.23820847 C463.02245315 21.96200556 463.02245315 21.96200556 463.02217102 23.72062683 C463.02584771 24.93852773 463.0295244 26.15642864 463.0333125 27.41123563 C463.04244202 30.79809681 463.04704962 34.18490953 463.04970181 37.57177842 C463.05360426 41.22222721 463.06318265 44.87266197 463.07191467 48.52310181 C463.09168089 57.34213323 463.10174555 66.16116581 463.11064246 74.98021385 C463.11502516 79.13282453 463.12039202 83.28543393 463.12563133 87.43804359 C463.14264387 101.24158431 463.15713813 115.04512423 463.16438007 128.84867382 C463.16628998 132.43109831 463.16821031 136.0135228 463.17016602 139.59594727 C463.17064976 140.48634609 463.1711335 141.37674492 463.1716319 142.29412553 C463.17993254 156.71862378 463.20526991 171.14303911 463.23774669 185.56750115 C463.27081491 200.37531892 463.28882862 215.18309456 463.29202431 229.99094945 C463.29418965 238.30561006 463.30294165 246.62014976 463.32848549 254.9347744 C463.35018927 262.01582191 463.35824453 269.09671914 463.34851871 276.17779615 C463.343973 279.78997589 463.3458755 283.40184554 463.36528015 287.01398277 C463.38614919 290.93260225 463.37592959 294.85079429 463.36274719 298.76945496 C463.37920106 300.47652163 463.37920106 300.47652163 463.39598733 302.2180745 C463.34348365 308.67702976 462.67633566 313.70417141 458.875 319.0625 C455.44865131 322.40527921 452.6634412 323.33876669 448 323.5625 C443.34212421 323.34783624 439.17899493 322.45103499 434.68359375 321.234375 C394.66611216 310.85978541 350.4108277 308.7867406 309.875 317.0625 C308.1751189 317.36944959 306.47461512 317.67297553 304.7734375 317.97265625 C281.04567688 322.33179236 258.89133876 331.85651192 237.84375 343.43359375 C236.8640625 343.97113281 235.884375 344.50867188 234.875 345.0625 C233.88886719 345.64451172 233.88886719 345.64451172 232.8828125 346.23828125 C227.02594858 348.64255807 219.53105608 348.50898454 213.65722656 346.18505859 C208.9531363 343.85554067 204.50564233 341.09399276 200.03564453 338.34912109 C190.0850346 332.42372964 179.11785288 328.47065526 168.16967773 324.83203125 C166.47955519 324.2652405 164.79490563 323.68206538 163.11352539 323.08984375 C156.04482346 320.63857711 149.02949054 318.85462071 141.6875 317.4375 C140.69169922 317.23382812 139.69589844 317.03015625 138.66992188 316.8203125 C122.78956858 313.68642874 107.34227046 312.73582891 91.18334961 312.80175781 C88.07711104 312.81244971 84.97145521 312.80181402 81.86523438 312.7890625 C64.10196941 312.77505876 46.83787878 314.23581606 29.375 317.5 C28.2303125 317.70431641 27.085625 317.90863281 25.90625 318.11914062 C19.37544991 319.31026951 12.95780733 320.72622031 6.54418945 322.44140625 C1.48647164 323.61828671 -3.55959408 324.53320581 -8.23046875 321.85546875 C-12.05132666 318.74363602 -14.8494719 315.70867447 -15.376849 310.64373988 C-15.37771577 309.73468671 -15.37858255 308.82563355 -15.37947559 307.88903332 C-15.38530779 306.83688395 -15.39113998 305.78473458 -15.39714891 304.70070189 C-15.39336958 303.54595266 -15.38959026 302.39120343 -15.38569641 301.20146179 C-15.38952196 299.97383379 -15.39334751 298.74620579 -15.39728898 297.48137695 C-15.40583403 294.0719812 -15.40538086 290.66280065 -15.40110838 287.25341094 C-15.39864564 283.57709144 -15.40764977 279.9007975 -15.41514587 276.2244873 C-15.42790813 269.02101608 -15.42968461 261.81758211 -15.42734561 254.61410149 C-15.42556376 248.75898898 -15.42730924 242.90388779 -15.43157005 237.04877663 C-15.43216524 236.21595591 -15.43276043 235.3831352 -15.43337366 234.5250775 C-15.43458539 232.83326675 -15.43579953 231.141456 -15.43701603 229.44964526 C-15.44789775 213.57602516 -15.44572627 197.7024263 -15.43963119 181.82880501 C-15.43446319 167.30670979 -15.44571325 152.78468167 -15.46472941 138.26259973 C-15.48410188 123.35417934 -15.49236474 108.44579069 -15.48860615 93.53735763 C-15.48669299 85.16632334 -15.48919275 76.79534615 -15.50332069 68.42432213 C-15.51522804 61.29680099 -15.51664677 54.16937208 -15.50453053 47.0418497 C-15.49863686 43.40554126 -15.49755568 39.76940157 -15.50953293 36.13310432 C-15.52236921 32.19014874 -15.51193853 28.24744954 -15.4992218 24.30448914 C-15.50659609 23.15643207 -15.51397037 22.008375 -15.52156812 20.82552832 C-15.48059453 14.79893826 -15.12436289 10.3461479 -12.125 5.0625 C-7.99523254 1.23491065 -5.55982044 -0.07127975 0 0 Z " fill="#F9F2E4" transform="translate(288.125,358.9375)"/>
<path d="M0 0 C0 3.58912412 -0.66436554 4.10857029 -3 6.6875 C-3.556875 7.31011719 -4.11375 7.93273437 -4.6875 8.57421875 C-5.120625 9.04472656 -5.55375 9.51523437 -6 10 C-6.33 9.34 -6.66 8.68 -7 8 C-3.375 2.25 -3.375 2.25 0 0 Z " fill="#EAE6DB" transform="translate(536,355)"/>
</svg>
